<?xml version="1.0" encoding="UTF-8"?> <svg xmlns="http://www.w3.org/2000/svg" width="224" height="32" viewBox="0 0 224 32" fill="none"><rect x="18" y="18" width="14" height="7" rx="1" fill="#DA2C43"></rect><rect x="25" y="18" width="7" height="14" rx="1" fill="#DA2C43"></rect><rect y="25" width="14" height="7" rx="1" fill="#101010"></rect><rect y="18" width="7" height="14" rx="1" fill="#101010"></rect><rect x="18" width="14" height="7" rx="1" fill="#101010"></rect><rect x="25" width="7" height="14" rx="1" fill="#101010"></rect><rect width="14" height="7" rx="1" fill="#101010"></rect><rect width="7" height="14" rx="1" fill="#101010"></rect><path d="M52.7836 4.152C55.3223 4.152 57.605 4.78133 59.6316 6.04C61.6583 7.27733 63.077 8.952 63.8876 11.064C64.0583 11.448 63.941 11.6933 63.5356 11.8L59.9196 12.76C59.5783 12.8453 59.3223 12.696 59.1516 12.312C57.8076 9.83733 55.6956 8.6 52.8156 8.6C50.8103 8.6 49.1356 9.304 47.7916 10.712C46.469 12.12 45.8076 13.8373 45.8076 15.864C45.8076 17.9547 46.469 19.6827 47.7916 21.048C49.1356 22.4133 50.8423 23.096 52.9116 23.096C54.213 23.096 55.4076 22.776 56.4956 22.136C57.605 21.4747 58.4796 20.5573 59.1196 19.384H53.2956C53.0823 19.384 52.901 19.3093 52.7516 19.16C52.6236 19.0107 52.5596 18.84 52.5596 18.648V16.248C52.5596 16.0347 52.6236 15.864 52.7516 15.736C52.901 15.5867 53.0823 15.512 53.2956 15.512H63.0556C63.269 15.512 63.4503 15.5867 63.5996 15.736C63.749 15.864 63.8236 16.0347 63.8236 16.248V26.264C63.8236 26.4773 63.749 26.6587 63.5996 26.808C63.4503 26.936 63.269 27 63.0556 27H60.1436C59.9303 27 59.749 26.936 59.5996 26.808C59.4716 26.6587 59.4076 26.4773 59.4076 26.264V24.312C57.7436 26.4027 55.333 27.448 52.1756 27.448C48.933 27.448 46.2236 26.328 44.0476 24.088C41.8716 21.848 40.7836 19.0853 40.7836 15.8C40.7836 12.5147 41.9356 9.752 44.2396 7.512C46.565 5.272 49.413 4.152 52.7836 4.152ZM69.0861 13.4C70.6648 11.7787 72.6381 10.968 75.0061 10.968C77.3741 10.968 79.2941 11.7467 80.7661 13.304C82.2595 14.84 83.0061 16.6533 83.0061 18.744V19.608C83.0061 20.0987 82.7395 20.344 82.2061 20.344H71.5181C71.6248 21.304 72.0195 22.0827 72.7021 22.68C73.4061 23.256 74.2275 23.544 75.1661 23.544C76.4888 23.544 77.5981 23.0427 78.4941 22.04C78.7928 21.7413 79.0701 21.688 79.3261 21.88L81.7901 23.48C82.1741 23.736 82.2168 24.056 81.9181 24.44C80.3821 26.4453 78.0995 27.448 75.0701 27.448C72.6381 27.448 70.6435 26.6693 69.0861 25.112C67.5288 23.5547 66.7501 21.6133 66.7501 19.288C66.7501 16.9627 67.5288 15 69.0861 13.4ZM78.4621 17.464C78.2701 16.568 77.8541 15.8853 77.2141 15.416C76.5741 14.9253 75.8488 14.68 75.0381 14.68C74.2488 14.68 73.5341 14.936 72.8941 15.448C72.2541 15.9387 71.8275 16.6107 71.6141 17.464H78.4621ZM87.3331 22.36V15.288H85.2851C85.0931 15.288 84.9331 15.224 84.8051 15.096C84.6771 14.9467 84.6131 14.776 84.6131 14.584V12.12C84.6131 11.928 84.6771 11.768 84.8051 11.64C84.9331 11.4907 85.0931 11.416 85.2851 11.416H87.3331V7.288C87.3331 7.07467 87.3971 6.904 87.5251 6.776C87.6745 6.648 87.8451 6.584 88.0371 6.584H91.3011C91.4718 6.584 91.6211 6.648 91.7491 6.776C91.8985 6.904 91.9731 7.07467 91.9731 7.288V11.416H96.3571C96.5491 11.416 96.7198 11.4907 96.8691 11.64C97.0185 11.768 97.0931 11.928 97.0931 12.12V14.584C97.0931 14.7547 97.0185 14.9147 96.8691 15.064C96.7198 15.2133 96.5491 15.288 96.3571 15.288H91.9731V21.272C91.9731 21.9547 92.1331 22.424 92.4531 22.68C92.7731 22.936 93.1358 23.064 93.5411 23.064C93.9678 23.064 94.4371 22.9147 94.9491 22.616C95.5251 22.2533 95.9625 22.296 96.2611 22.744L97.3811 24.536C97.6371 24.9413 97.6051 25.3253 97.2851 25.688C96.2185 26.7973 94.6825 27.352 92.6771 27.352C91.1838 27.352 89.9145 26.936 88.8691 26.104C87.8451 25.272 87.3331 24.024 87.3331 22.36ZM115.744 4.152C117.43 4.152 118.955 4.408 120.32 4.92C121.686 5.432 122.752 6.06133 123.52 6.808C124.203 7.42666 124.267 8.01333 123.712 8.568L122.144 10.2C121.611 10.7333 121.003 10.744 120.32 10.232C118.699 8.99467 117.142 8.376 115.648 8.376C114.667 8.376 113.846 8.58933 113.184 9.016C112.544 9.42133 112.224 9.976 112.224 10.68C112.224 11.6827 112.982 12.3867 114.496 12.792L118.784 13.848C122.88 14.9147 124.928 17.08 124.928 20.344C124.928 22.264 124.128 23.928 122.528 25.336C120.95 26.744 118.72 27.448 115.84 27.448C113.835 27.448 112.075 27.1387 110.56 26.52C109.067 25.88 107.894 25.1013 107.04 24.184C106.742 23.8853 106.571 23.5653 106.528 23.224C106.507 22.8613 106.656 22.5307 106.976 22.232L109.024 20.632C109.558 20.248 110.102 20.3333 110.656 20.888C112.235 22.424 114.027 23.192 116.032 23.192C117.184 23.192 118.08 22.9573 118.72 22.488C119.36 22.0187 119.68 21.464 119.68 20.824C119.68 20.1413 119.414 19.608 118.88 19.224C118.368 18.8187 117.568 18.4773 116.48 18.2L112.608 17.24C110.859 16.8133 109.494 16.0667 108.512 15C107.552 13.9333 107.072 12.6107 107.072 11.032C107.072 9.02667 107.883 7.384 109.504 6.104C111.147 4.80267 113.227 4.152 115.744 4.152ZM129.427 22.36V15.288H127.379C127.187 15.288 127.027 15.224 126.899 15.096C126.771 14.9467 126.707 14.776 126.707 14.584V12.12C126.707 11.928 126.771 11.768 126.899 11.64C127.027 11.4907 127.187 11.416 127.379 11.416H129.427V7.288C129.427 7.07467 129.491 6.904 129.619 6.776C129.768 6.648 129.939 6.584 130.131 6.584H133.395C133.566 6.584 133.715 6.648 133.843 6.776C133.992 6.904 134.067 7.07467 134.067 7.288V11.416H138.451C138.643 11.416 138.814 11.4907 138.963 11.64C139.112 11.768 139.187 11.928 139.187 12.12V14.584C139.187 14.7547 139.112 14.9147 138.963 15.064C138.814 15.2133 138.643 15.288 138.451 15.288H134.067V21.272C134.067 21.9547 134.227 22.424 134.547 22.68C134.867 22.936 135.23 23.064 135.635 23.064C136.062 23.064 136.531 22.9147 137.043 22.616C137.619 22.2533 138.056 22.296 138.355 22.744L139.475 24.536C139.731 24.9413 139.699 25.3253 139.379 25.688C138.312 26.7973 136.776 27.352 134.771 27.352C133.278 27.352 132.008 26.936 130.963 26.104C129.939 25.272 129.427 24.024 129.427 22.36ZM147.104 16.44C146.379 17.208 146.016 18.136 146.016 19.224C146.016 20.312 146.379 21.2507 147.104 22.04C147.829 22.808 148.736 23.192 149.824 23.192C150.912 23.192 151.819 22.808 152.544 22.04C153.269 21.2507 153.632 20.312 153.632 19.224C153.632 18.136 153.269 17.208 152.544 16.44C151.819 15.6507 150.912 15.256 149.824 15.256C148.736 15.256 147.829 15.6507 147.104 16.44ZM143.648 25.144C142.112 23.608 141.344 21.624 141.344 19.192C141.344 16.76 142.112 14.7867 143.648 13.272C145.205 11.736 147.04 10.968 149.152 10.968C150.155 10.968 151.051 11.1707 151.84 11.576C152.651 11.96 153.248 12.4613 153.632 13.08V12.12C153.632 11.928 153.696 11.768 153.824 11.64C153.973 11.4907 154.133 11.416 154.304 11.416H157.536C157.728 11.416 157.888 11.4907 158.016 11.64C158.144 11.768 158.208 11.928 158.208 12.12V26.328C158.208 26.52 158.144 26.68 158.016 26.808C157.888 26.936 157.728 27 157.536 27H154.304C154.133 27 153.973 26.936 153.824 26.808C153.696 26.68 153.632 26.52 153.632 26.328V25.336C153.248 25.9547 152.651 26.4667 151.84 26.872C151.051 27.256 150.144 27.448 149.12 27.448C147.029 27.448 145.205 26.68 143.648 25.144ZM170.05 11.192H170.498C171.01 11.192 171.266 11.48 171.266 12.056V15.224C171.266 15.5227 171.17 15.7467 170.978 15.896C170.807 16.024 170.626 16.088 170.434 16.088H169.602C167.575 16.088 166.562 17.208 166.562 19.448V26.36C166.562 26.552 166.487 26.712 166.338 26.84C166.21 26.9467 166.05 27 165.858 27H162.626C162.434 27 162.274 26.936 162.146 26.808C162.018 26.68 161.954 26.52 161.954 26.328V12.12C161.954 11.928 162.018 11.768 162.146 11.64C162.274 11.4907 162.434 11.416 162.626 11.416H165.698C165.869 11.416 166.018 11.48 166.146 11.608C166.295 11.736 166.37 11.8853 166.37 12.056V13.336C167.266 11.9067 168.493 11.192 170.05 11.192ZM175.458 22.36V15.288H173.41C173.218 15.288 173.058 15.224 172.93 15.096C172.802 14.9467 172.738 14.776 172.738 14.584V12.12C172.738 11.928 172.802 11.768 172.93 11.64C173.058 11.4907 173.218 11.416 173.41 11.416H175.458V7.288C175.458 7.07467 175.522 6.904 175.65 6.776C175.799 6.648 175.97 6.584 176.162 6.584H179.426C179.597 6.584 179.746 6.648 179.874 6.776C180.023 6.904 180.098 7.07467 180.098 7.288V11.416H184.482C184.674 11.416 184.845 11.4907 184.994 11.64C185.143 11.768 185.218 11.928 185.218 12.12V14.584C185.218 14.7547 185.143 14.9147 184.994 15.064C184.845 15.2133 184.674 15.288 184.482 15.288H180.098V21.272C180.098 21.9547 180.258 22.424 180.578 22.68C180.898 22.936 181.261 23.064 181.666 23.064C182.093 23.064 182.562 22.9147 183.074 22.616C183.65 22.2533 184.087 22.296 184.386 22.744L185.506 24.536C185.762 24.9413 185.73 25.3253 185.41 25.688C184.343 26.7973 182.807 27.352 180.802 27.352C179.309 27.352 178.039 26.936 176.994 26.104C175.97 25.272 175.458 24.024 175.458 22.36ZM189.711 13.4C191.29 11.7787 193.263 10.968 195.631 10.968C197.999 10.968 199.919 11.7467 201.391 13.304C202.884 14.84 203.631 16.6533 203.631 18.744V19.608C203.631 20.0987 203.364 20.344 202.831 20.344H192.143C192.25 21.304 192.644 22.0827 193.327 22.68C194.031 23.256 194.852 23.544 195.791 23.544C197.114 23.544 198.223 23.0427 199.119 22.04C199.418 21.7413 199.695 21.688 199.951 21.88L202.415 23.48C202.799 23.736 202.842 24.056 202.543 24.44C201.007 26.4453 198.724 27.448 195.695 27.448C193.263 27.448 191.268 26.6693 189.711 25.112C188.154 23.5547 187.375 21.6133 187.375 19.288C187.375 16.9627 188.154 15 189.711 13.4ZM199.087 17.464C198.895 16.568 198.479 15.8853 197.839 15.416C197.199 14.9253 196.474 14.68 195.663 14.68C194.874 14.68 194.159 14.936 193.519 15.448C192.879 15.9387 192.452 16.6107 192.239 17.464H199.087ZM211.51 16.44C210.785 17.208 210.422 18.136 210.422 19.224C210.422 20.312 210.785 21.2507 211.51 22.04C212.235 22.808 213.142 23.192 214.23 23.192C215.318 23.192 216.225 22.808 216.95 22.04C217.675 21.2507 218.038 20.312 218.038 19.224C218.038 18.136 217.675 17.208 216.95 16.44C216.225 15.6507 215.318 15.256 214.23 15.256C213.142 15.256 212.235 15.6507 211.51 16.44ZM208.054 25.144C206.518 23.608 205.75 21.624 205.75 19.192C205.75 16.76 206.507 14.7867 208.022 13.272C209.558 11.736 211.371 10.968 213.462 10.968C214.486 10.968 215.403 11.16 216.214 11.544C217.025 11.928 217.622 12.4187 218.006 13.016V5.272C218.006 5.08 218.07 4.92 218.198 4.792C218.347 4.664 218.518 4.6 218.71 4.6H221.942C222.134 4.6 222.294 4.664 222.422 4.792C222.55 4.92 222.614 5.08 222.614 5.272V26.328C222.614 26.52 222.55 26.68 222.422 26.808C222.294 26.936 222.134 27 221.942 27H218.71C218.539 27 218.379 26.936 218.23 26.808C218.102 26.68 218.038 26.52 218.038 26.328V25.336C217.035 26.744 215.531 27.448 213.526 27.448C211.435 27.448 209.611 26.68 208.054 25.144Z" fill="#101010"></path></svg> 